<svg width="1658" height="1657" viewBox="0 0 1658 1657" fill="none" xmlns="http://www.w3.org/2000/svg">
<g opacity="0.35">
<mask id="mask0_1_789" style="mask-type:alpha" maskUnits="userSpaceOnUse" x="0" y="281" width="2550" height="677">
<mask id="mask1_1_789" style="mask-type:luminance" maskUnits="userSpaceOnUse" x="0" y="-378" width="2579" height="1996">
<path d="M2317.87 995.688L0.284302 1617.99L261 245.154L2578.58 -377.147L2317.87 995.688Z" fill="white"/>
</mask>
<g mask="url(#mask1_1_789)">
<path d="M199.529 565.341C220.722 650.47 324.003 686.84 438.582 649.74C520.16 623.283 604.445 564.471 682.705 554.21C777.994 541.582 828.337 601.985 883.385 642.519C952.438 693.325 1027.21 703.101 1147.82 643.741C1237.24 599.799 1317.07 530.224 1408.93 507.051C1577.89 464.406 1631.87 600.557 1664.27 705.367C1696.9 810.913 1727.69 923.571 1854.36 950.122C1958.16 971.949 2071.91 938.381 2195.2 877.084C2254.48 847.661 2311.72 823.5 2365.01 776.097" stroke="#0D8EFF" stroke-miterlimit="10"/>
<path d="M2370.64 768.761C2316.39 815.839 2258.18 840.664 2198.22 870.195C2154.12 891.968 2111.22 910.121 2069.51 923.708C1993.09 948.656 1920.67 957.584 1852.86 943.224C1831.94 938.649 1813.38 931.903 1797.14 923.152C1714.57 878.328 1689.87 783.146 1661.31 694.464C1627.33 588.638 1567.4 455.932 1396.67 500.34C1304.59 524.142 1224.61 592.989 1135.48 637.715C1056.03 677.337 996.148 687.873 944.26 677.123C917.973 671.676 893.962 660.599 870.177 645.356C813.718 608.868 761.239 553.518 666.046 567.03C642.427 570.403 618.426 577.824 594.061 587.234C537.241 609.339 479.171 642.193 422.542 659.35C308.663 694.134 206.949 656.465 186.361 571.008" stroke="#158CF9" stroke-miterlimit="10"/>
<path d="M2375.9 761.692C2320.69 808.449 2261.71 833.889 2200.88 863.576C2156.27 885.432 2112.63 903.888 2070.43 917.407C1993 942.394 1919.18 951.484 1851.14 936.717C1829.89 932.069 1811.38 925.162 1795.06 915.97C1711.87 869.934 1688.24 772.902 1658.57 683.53C1623.04 576.521 1556.93 447.614 1384.41 493.781C1292.49 518.119 1212.14 586.455 1123.17 631.681C1044.46 671.511 984.305 683.824 932.035 675.386C905.527 671.26 881.105 661.563 856.846 648.036C799.167 615.531 744.56 565.212 649.304 579.488C625.677 583.011 601.513 590.456 577.173 599.839C520.315 621.433 462.365 652.929 406.16 668.993C293.034 701.142 192.85 662.343 172.865 576.557" stroke="#1D8BF2" stroke-miterlimit="10"/>
<path d="M2381.15 754.67C2324.98 801.106 2265.25 826.993 2203.52 857.001C2158.4 878.94 2114.25 897.485 2071.35 911.149C1992.87 936.339 1917.87 945.377 1849.26 930.133C1827.87 925.365 1809.06 918.224 1792.59 908.923C1708.8 861.678 1686.25 762.637 1655.42 672.907C1618.15 564.762 1546.18 439.87 1371.97 487.294C1280.02 512.212 1199.48 579.995 1110.65 625.885C1032.64 666.088 972.492 679.629 919.812 673.66C893.115 670.686 868.251 662.528 843.707 650.665C784.626 622.175 728.054 576.986 632.549 592.069C608.884 595.906 584.743 603.328 560.301 612.401C503.375 633.651 445.571 663.629 389.818 678.44C277.753 708.202 179.125 668.113 159.554 582.044" stroke="#2589EC" stroke-miterlimit="10"/>
<path d="M2386.35 747.892C2329.21 794.008 2268.52 820.551 2206.3 850.62C2160.67 872.641 2116.01 891.274 2072.4 905.082C1992.92 930.308 1916.74 939.293 1847.68 923.855C1826.15 918.968 1807.01 911.76 1790.43 902.184C1705.8 853.945 1684.52 752.857 1652.59 662.438C1613.74 553.278 1535.81 432.101 1359.88 480.94C1267.86 506.6 1186.98 573.712 1098.49 620.053C1021.01 660.675 960.835 675.604 907.748 672.095C880.862 670.269 855.747 663.597 830.546 653.485C770.039 629.159 711.568 588.75 615.971 604.757C592.297 608.742 567.993 616.187 543.606 625.07C486.641 645.811 428.952 674.441 373.649 688.004C262.453 715.433 165.19 674.106 146.405 587.662" stroke="#2D88E6" stroke-miterlimit="10"/>
<path d="M2391.74 740.868C2333.65 786.661 2272.19 813.808 2209.14 843.864C2162.99 865.964 2117.63 884.729 2073.51 898.632C1992.99 924.057 1915.45 933.032 1845.98 917.237C1824.12 912.277 1805.05 904.744 1788.17 894.941C1702.94 845.5 1682.7 742.588 1649.63 651.65C1609.05 541.363 1525.35 423.84 1347.46 474.458C1255.44 500.527 1174.38 567.085 1086.03 614.083C1009.28 654.909 949.052 671.384 895.375 670.372C868.086 669.899 842.75 664.544 817.082 656.13C755.371 635.742 694.793 600.308 599.106 617.232C575.424 621.364 551.145 628.786 526.813 637.478C469.779 657.875 412.391 685.115 357.164 697.524C246.681 722.508 151.151 679.857 132.777 593.136" stroke="#3586DF" stroke-miterlimit="10"/>
<path d="M2396.93 733.992C2337.88 779.462 2275.68 807.046 2211.73 837.415C2165.08 859.594 2119.21 878.444 2074.39 892.487C1992.86 917.942 1914.12 927.025 1844.04 910.919C1822.05 905.84 1802.65 898.24 1785.65 888.164C1699.62 837.572 1680.65 732.633 1646.23 641.388C1604.11 529.931 1514.27 416.137 1334.83 468.269C1242.79 494.908 1161.54 560.912 1073.32 608.563C997.314 649.593 936.843 667.655 882.951 669.038C855.477 669.703 829.707 665.87 803.573 659.148C740.291 642.775 677.986 612.203 582.239 629.876C558.334 634.365 534.265 641.718 509.801 650.265C452.729 670.155 395.454 696.054 340.675 707.222C231.086 729.724 137.071 685.964 119.292 598.923" stroke="#3D85D9" stroke-miterlimit="10"/>
<path d="M2402.14 727.067C2342.13 772.217 2278.98 800.449 2214.54 830.876C2167.38 853.135 2120.99 872.07 2075.47 886.253C1992.91 911.905 1913 920.933 1842.53 904.306C1820.4 899.108 1800.7 891.276 1783.55 881.093C1696.91 829.303 1678.98 722.55 1643.46 630.619C1599.57 518.199 1503.99 408.017 1322.65 461.589C1230.76 488.754 1149.17 554.093 1061.08 602.4C985.624 643.682 925.285 663.235 870.806 667.097C843.117 669.061 816.943 666.58 790.345 661.542C725.682 649.123 661.44 623.604 565.631 642.027C541.718 646.662 517.485 654.037 493.075 662.396C435.931 681.946 378.796 706.347 324.46 716.281C215.728 736.475 123.064 691.493 105.88 604.128" stroke="#4583D3" stroke-miterlimit="10"/>
<path d="M2407.27 720.452C2346.34 765.117 2282.39 794.109 2217.09 824.684C2169.42 847.02 2122.34 866.086 2076.3 880.361C1992.55 906.088 1911.47 915.057 1840.56 898.239C1818.1 892.968 1798.44 884.977 1781.02 874.405C1693.55 821.632 1676.88 712.865 1640.22 620.416C1594.79 506.828 1493.29 400.29 1310.19 455.573C1218.27 483.306 1136.49 548.097 1048.56 596.891C973.808 638.54 913.261 659.506 858.57 665.746C830.512 668.885 804.093 667.87 777.219 664.465C711.151 656.148 645.038 635.336 549.139 654.667C525.218 659.447 501.009 666.8 476.466 675.015C419.282 694.061 362.256 717.132 308.332 725.998C200.484 743.73 109.325 697.649 92.763 609.799" stroke="#4D81CC" stroke-miterlimit="10"/>
<path d="M2412.44 713.576C2350.56 757.921 2285.87 787.345 2219.68 818.229C2171.5 840.644 2123.91 859.792 2077.21 874.042C1992.42 899.962 1910.17 908.872 1838.66 891.744C1816.06 886.354 1796.1 878.133 1778.72 867.408C1690.64 813.446 1674.99 702.88 1637.24 609.748C1590.08 495.038 1482.86 392.078 1298.02 448.904C1206.07 477.204 1123.95 541.332 1036.3 590.893C962.283 632.748 901.47 655.448 846.414 663.94C818.144 668.368 791.324 668.695 763.99 666.963C696.366 662.615 628.545 646.609 532.584 666.682C508.626 671.771 484.284 678.982 459.794 687.01C402.537 705.718 345.648 727.301 292.163 734.94C185.009 750.263 95.5649 702.879 79.5646 614.873" stroke="#5580C6" stroke-miterlimit="10"/>
<path d="M2417.76 706.731C2354.92 750.755 2289.28 780.815 2222.45 811.635C2173.76 834.126 2125.64 853.519 2078.45 867.697C1992.66 893.644 1909.22 902.657 1837.31 885.01C1814.57 879.502 1794.29 871.215 1776.79 860.219C1687.91 805.117 1673.51 692.552 1634.59 599.066C1585.87 483.357 1472.77 383.843 1286.03 442.246C1194.04 471.109 1111.73 534.692 1024.25 584.736C950.778 626.839 890.1 651.013 834.651 661.912C806.201 667.461 778.953 669.288 751.161 669.222C682.144 668.945 612.465 657.611 516.415 678.585C492.448 683.817 468.1 691.169 443.663 699.009C386.364 717.215 329.736 737.595 276.534 743.894C170.227 756.935 82.1226 708.343 66.7115 620.021" stroke="#5D7EC0" stroke-miterlimit="10"/>
<path d="M2422.88 700.023C2359.09 743.724 2292.69 774.37 2225.19 805.287C2175.81 827.897 2127.18 847.37 2079.48 861.637C1992.66 887.77 1907.9 896.603 1835.55 878.765C1812.52 873.021 1792.27 864.577 1774.47 853.358C1684.98 797.074 1671.61 682.731 1631.59 588.569C1580.9 472.118 1461.94 376.034 1273.45 436.122C1181.47 465.38 1098.97 528.417 1011.59 579.265C938.849 621.569 877.939 647.3 822.101 660.595C793.256 667.468 765.797 670.582 737.55 672.176C666.961 675.999 595.588 669.434 499.48 691.142C475.477 696.68 450.996 703.89 426.612 711.543C369.242 729.411 312.749 748.311 259.954 753.553C154.521 764.156 67.9096 714.481 53.115 625.684" stroke="#657DB9" stroke-miterlimit="10"/>
<path d="M2427.98 693.494C2363.24 736.874 2296.11 767.943 2227.72 799.164C2177.84 821.848 2128.7 841.401 2080.31 855.802C1992.49 881.959 1906.53 890.891 1833.58 872.745C1810.41 866.884 1789.83 858.372 1771.92 846.885C1681.78 789.584 1669.46 673.303 1628.12 578.671C1576.11 460.854 1451.31 368.181 1261.07 429.948C1169.24 459.72 1086.4 522.097 999.151 573.586C927.136 616.092 866.179 643.332 809.769 659.061C780.717 667.208 752.648 671.856 724.161 674.896C652.005 682.804 578.973 680.829 482.776 703.432C458.766 709.112 434.307 716.299 409.791 723.81C352.377 741.18 295.986 758.768 243.626 762.796C139.06 770.97 53.9663 720.054 39.5435 631.151" stroke="#6D7BB3" stroke-miterlimit="10"/>
<path d="M2433.12 686.743C2367.43 729.806 2299.35 761.505 2230.28 792.825C2179.9 815.585 2130.25 835.219 2081.16 849.755C1992.31 876.101 1905.19 884.971 1831.85 866.309C1808.53 860.331 1787.66 851.59 1769.6 839.997C1678.66 781.561 1667.57 663.298 1625.11 568.145C1571.56 449.165 1440.89 360.043 1248.92 423.328C1157.06 453.66 1073.87 515.385 986.938 567.473C915.463 610.231 854.458 638.976 797.845 657.042C768.614 666.299 740.122 672.431 711.367 677.076C637.646 689.055 562.959 691.654 466.699 714.989C442.495 720.857 418.214 728.139 393.593 735.348C336.104 752.386 279.84 768.506 227.91 771.326C123.991 777.29 40.4085 725.135 26.7562 635.87" stroke="#757AAD" stroke-miterlimit="10"/>
<path d="M2438.19 680.168C2371.55 722.907 2302.72 755.183 2232.8 786.638C2181.88 809.63 2131.57 829.224 2081.98 843.845C1992.1 870.372 1903.64 879.219 1829.88 860.206C1806.43 854.11 1785.23 845.302 1767.05 833.442C1675.5 773.836 1665.42 653.818 1621.83 558.156C1566.55 438.073 1430.23 352.447 1236.55 417.228C1144.69 447.95 1061.28 509.293 974.484 562.014C903.738 604.97 842.475 635.416 785.51 655.69C756.076 666.212 727.164 673.821 697.988 679.945C622.713 695.976 546.381 703.129 450.036 727.35C425.796 733.519 401.383 740.66 376.785 747.845C319.224 764.547 263.09 779.201 211.562 780.977C108.506 784.528 26.4047 731.306 13.1789 641.617" stroke="#7E78A6" stroke-miterlimit="10"/>
<path d="M2443.45 673.483C2375.88 715.74 2306.11 748.637 2235.71 780.14C2184.28 803.203 2133.47 822.874 2083.18 837.626C1992.32 864.172 1902.69 872.953 1828.3 853.794C1804.52 847.626 1783.4 838.5 1764.91 826.419C1672.56 765.687 1663.67 643.872 1618.96 547.696C1562.12 426.624 1419.98 344.357 1224.56 410.794C1132.67 442.069 1049.11 502.711 962.439 556.066C892.234 599.268 831.113 631.161 773.767 653.798C743.973 665.463 714.827 674.5 685.203 682.261C608.348 702.491 530.405 714.02 433.788 739.17C409.542 745.48 385.15 752.597 360.604 759.597C302.998 775.805 247.117 789.278 195.862 789.735C93.6613 790.883 13.0361 736.597 0.391738 646.601" stroke="#8676A0" stroke-miterlimit="10"/>
<path d="M2448.51 666.912C2380 708.848 2309.48 742.317 2238.22 773.957C2186.3 797.09 2134.98 816.837 2084 831.718C1992.11 858.443 1901.32 867.156 1826.52 847.646C1802.6 841.36 1781.15 832.169 1762.73 819.777C1669.73 758.04 1661.91 634.157 1616.07 537.47C1557.51 415.295 1409.57 336.369 1212.42 404.454C1120.53 436.117 1036.77 496.222 950.205 550.369C880.725 593.772 819.378 627.195 761.655 652.185C731.659 665.107 702.095 675.611 672.054 684.841C593.626 709.254 514.049 725.303 417.374 751.172C393.121 757.621 368.538 764.921 344.072 771.576C286.391 787.452 230.635 799.47 179.806 798.73C78.2452 797.689 -0.85001 742.022 -12.9434 651.88" stroke="#8E7599" stroke-miterlimit="10"/>
<path d="M2453.56 660.51C2384.1 702.126 2312.82 736.167 2240.72 767.942C2188.29 791.145 2136.28 811.013 2084.8 825.979C1991.91 852.721 1899.75 861.572 1824.56 841.55C1800.5 835.148 1778.75 825.729 1760.19 813.233C1666.39 750.375 1659.75 624.707 1612.61 527.55C1552.51 404.227 1398.78 328.625 1199.71 398.397C1107.97 430.565 1023.68 490.064 937.43 544.798C868.488 588.447 807.07 623.512 748.999 650.688C718.802 664.863 688.667 676.711 658.55 687.477C578.737 716.015 497.376 736.451 400.642 763.039C376.352 769.788 351.821 776.904 327.22 783.419C269.493 798.804 213.831 809.533 163.396 807.762C62.6825 804.337 -14.9449 747.614 -26.4307 657.004" stroke="#967393" stroke-miterlimit="10"/>
<path d="M2458.62 653.922C2388.21 695.219 2316.03 729.712 2243.22 761.738C2190.29 785.011 2137.75 805.114 2085.82 819.843C1991.91 846.763 1898.63 855.384 1822.99 835.173C1798.61 828.698 1776.89 819.124 1758.06 806.247C1663.63 742.227 1658 614.824 1609.76 516.994C1547.92 392.728 1388.59 320.389 1187.78 391.797C1096.04 424.353 1011.57 483.32 925.443 538.682C857.222 582.533 795.764 619.075 737.319 648.589C706.766 663.895 676.373 677.317 645.841 689.541C564.465 722.233 481.51 746.996 384.689 774.459C360.392 781.347 335.698 788.484 311.147 794.817C253.344 809.872 197.802 819.157 147.789 816.197C47.9186 810.395 -28.2449 752.622 -39.3372 661.751" stroke="#9E728D" stroke-miterlimit="10"/>
<path d="M2463.81 647.445C2392.46 688.419 2319.52 723.475 2246.05 755.587C2192.62 778.926 2139.58 799.102 2086.96 813.956C1991.88 840.932 1897.41 849.641 1821.36 829.08C1796.84 822.489 1774.82 812.689 1755.84 799.709C1660.62 734.576 1656.19 605.25 1606.8 507.072C1543.24 381.712 1377.96 312.709 1175.62 385.693C1083.85 418.791 999.025 477.107 913.191 533.207C845.692 577.256 783.984 615.469 725.198 647.151C694.447 663.699 663.643 678.571 632.7 692.247C549.769 729.073 465.228 758.143 368.323 786.476C343.807 793.705 319.348 800.614 294.636 806.968C236.786 821.534 181.336 829.537 131.744 825.393C32.7149 817.222 -41.9587 758.245 -52.476 667.075" stroke="#A67086" stroke-miterlimit="10"/>
<path d="M2469.24 639.96C2396.92 680.651 2323.2 716.304 2248.86 748.578C2194.91 772.008 2141.17 792.321 2088.03 807.275C1991.9 834.457 1896.25 843.115 1819.6 822.089C1794.94 815.381 1772.59 805.512 1753.49 792.264C1657.6 726.112 1654.22 594.827 1603.73 495.926C1538.64 369.359 1367.76 303.573 1163.44 378.299C1071.63 411.815 986.56 469.81 901.036 526.378C834.048 570.709 772.463 610.378 713.316 644.25C682.356 662.054 651.131 678.386 619.767 693.524C535.411 734.626 449.075 768.068 352.111 796.983C327.58 804.357 303.106 811.412 278.465 817.432C220.52 831.688 165.326 838.385 115.956 833.11C17.5267 822.792 -55.6716 762.591 -65.6022 671.064" stroke="#AE6E80" stroke-miterlimit="10"/>
<path d="M2475.34 630.862C2402 671.332 2327.32 707.52 2252.24 739.966C2197.75 763.525 2143.45 783.968 2089.58 799.095C1992.38 826.376 1895.47 835.178 1818.36 813.803C1793.39 806.862 1771.07 796.833 1751.66 783.353C1655.11 715.979 1652.77 582.764 1601.17 483.213C1534.53 355.488 1357.61 292.981 1151.57 369.491C1059.66 403.645 974.334 461.082 888.854 518.403C822.518 563.036 760.649 604.304 701.077 640.576C669.919 659.499 638.226 677.476 606.394 694.259C520.594 739.536 432.418 777.403 335.286 807.276C310.727 814.81 286.07 821.907 261.458 827.766C203.416 841.584 148.268 847.042 99.2827 840.601C1.40934 828.157 -70.3599 766.851 -79.6836 674.878" stroke="#B66D7A" stroke-miterlimit="10"/>
<path d="M2481.49 621.571C2407.16 661.661 2331.63 698.664 2255.82 731.284C2200.78 754.973 2145.93 775.546 2091.32 790.848C1993.02 818.39 1894.73 827.061 1817.13 805.496C1792 798.439 1769.34 788.338 1749.8 774.581C1652.41 706.029 1651.33 570.675 1598.43 470.515C1530.27 341.466 1347.68 282.15 1139.55 360.537C1047.74 395.126 961.764 452.256 876.482 510.449C810.612 555.43 748.798 598.372 688.644 636.93C657.075 657.177 625.155 676.435 593.038 694.819C505.763 744.435 415.774 786.567 318.472 817.401C293.857 825.255 269.228 832.191 244.461 837.934C186.293 851.474 131.219 855.534 82.6166 847.928C-14.3061 833.11 -84.8021 770.581 -93.5182 678.158" stroke="#BE6B73" stroke-miterlimit="10"/>
<path d="M2487.62 612.295C2412.29 652.165 2335.93 689.822 2259.21 722.658C2203.61 746.477 2148.03 767.224 2092.87 782.656C1993.5 810.299 1893.96 819.114 1815.7 797.243C1790.42 790.07 1767.46 779.735 1747.95 765.819C1649.89 696.045 1649.86 558.76 1595.84 457.947C1526.16 327.578 1337.75 271.335 1127.68 351.713C1035.76 386.941 949.534 443.515 864.295 502.462C798.892 547.79 737.133 592.404 676.581 633.203C644.785 654.731 612.425 675.473 579.869 695.341C491.15 749.135 399.32 795.691 301.848 827.484C277.205 835.498 252.365 842.638 227.626 848.22C169.361 861.322 114.332 864.143 66.0852 855.533C-30.4089 838.311 -99.2641 774.473 -107.373 681.601" stroke="#C66A6D" stroke-miterlimit="10"/>
<path d="M2493.96 602.933C2417.61 642.584 2340.28 680.779 2262.79 713.95C2206.65 737.9 2150.52 758.778 2094.62 774.384C1994.15 802.288 1893.38 811.089 1814.69 788.709C1789.06 781.462 1766.13 770.968 1746.31 756.819C1647.38 686.026 1648.6 546.602 1593.51 444.975C1521.9 313.529 1327.7 260.2 1115.85 342.688C1023.87 378.236 937.178 434.459 852.108 494.44C787.383 539.913 725.312 586.288 664.333 629.489C632.309 652.298 599.693 674.481 566.514 695.878C476.319 754.01 382.647 804.993 285.062 837.426C260.39 845.6 235.551 852.74 210.657 858.205C152.266 871.03 97.3096 872.454 49.2622 862.722C-46.3101 843.286 -113.737 778.342 -121.422 685.064" stroke="#CE6867" stroke-miterlimit="10"/>
<path d="M2500.08 593.844C2422.71 633.276 2344.56 672.125 2266.16 705.514C2209.46 729.594 2152.78 750.602 2096.15 766.382C1994.6 794.388 1892.42 803.217 1813.24 780.648C1787.46 773.285 1764.21 762.558 1744.27 748.132C1644.68 676.118 1646.98 534.599 1590.74 432.478C1517.61 299.71 1317.52 249.775 1103.61 333.979C1011.52 370.166 924.394 425.879 839.549 486.571C775.291 532.392 713.303 580.281 651.897 625.883C619.675 649.813 586.591 673.641 552.971 696.523C461.331 758.833 365.817 814.241 268.063 847.634C243.334 856.128 218.34 863.151 193.658 868.412C135.169 880.8 80.4128 881.102 32.5937 870.088C-62.2118 848.323 -128.366 782.156 -135.259 688.384" stroke="#D66760" stroke-miterlimit="10"/>
<path d="M2506.22 584.523C2371.07 652.123 2234.04 720.481 2097.92 757.941C1961.8 795.402 1824.35 798.819 1742.62 739.121C1642.19 665.929 1645.72 522.434 1588.36 419.662C1513.5 285.776 1307.75 239.031 1091.96 324.905C930.668 389.22 784.074 510.318 639.838 622.111C495.603 733.904 335.337 845.832 176.856 878.491C1.80326 914.328 -139.463 833.368 -149.111 691.782" stroke="#DE655A" stroke-miterlimit="10"/>
<path d="M-138.816 690.48C-127.886 820.972 -2.40434 897.319 156.384 876.169C166.829 874.762 177.331 873.035 187.946 870.668C339.858 838.745 493.341 734.623 632.897 628.753C637.755 625.15 642.458 621.43 647.317 617.826C790.687 508.294 936.817 390.143 1096.07 328.758C1309.23 246.921 1509.76 296.571 1586.76 427.153C1596.61 443.96 1605.03 461.87 1612.48 480.318C1649.36 571.57 1664.95 675.839 1749.55 732.945C1791.79 761.359 1847.7 774.123 1910.29 775.041C1970.79 775.842 2037.67 765.482 2104 747.286C2239.21 710.446 2375.14 644.795 2507.58 581.964" stroke="#D56960" stroke-miterlimit="10"/>
<path d="M-128.673 689.178C-115.912 817.342 10.0471 890.583 167.647 868.572C177.9 867.216 188.421 865.337 199.027 862.98C349.638 830.85 501.684 728.201 640.405 624.425C645.258 620.83 649.928 617.279 654.781 613.684C797.311 506.254 942.793 391.093 1100.16 332.748C1310.87 254.897 1506.16 307.599 1585.15 434.769C1595.42 451.144 1603.93 468.548 1611.83 486.402C1651.01 574.523 1670.54 673.411 1756.46 726.771C1799.36 753.314 1855.28 764.848 1917.63 764.923C1977.86 765.041 2044.21 754.381 2110.25 736.612C2244.54 700.393 2379.18 637.489 2508.95 579.255" stroke="#CD6E67" stroke-miterlimit="10"/>
<path d="M-118.37 687.848C-103.782 813.698 22.8638 883.641 179.067 860.973C189.34 859.465 199.669 857.638 210.082 855.333C359.424 822.836 510.011 721.812 647.902 620.12C652.75 616.533 657.386 613.15 662.234 609.563C804.113 504.183 948.952 391.998 1104.07 336.766C1312.35 262.885 1502.42 318.622 1583.38 442.395C1593.89 458.384 1602.85 475.198 1611.2 492.46C1652.65 577.625 1676.12 671.155 1763.17 720.828C1806.54 745.549 1862.68 755.656 1924.75 755.05C1984.74 754.327 2050.7 743.644 2116.1 726.226C2249.49 690.624 2383.05 630.253 2510.1 576.914" stroke="#C4726D" stroke-miterlimit="10"/>
<path d="M-108.209 686.453C-91.7974 809.99 35.3184 876.848 190.488 853.443C200.568 851.985 210.917 850.008 221.321 847.712C369.39 814.854 518.516 715.457 655.603 615.693C660.417 612.274 665.076 608.74 669.707 605.365C810.721 502.238 954.943 392.871 1108.19 340.661C1313.81 270.944 1498.7 329.543 1581.96 449.998C1592.74 465.444 1602.12 481.827 1610.96 498.34C1654.7 580.397 1682.06 668.744 1770.27 714.585C1814.29 737.447 1870.43 746.334 1932.07 744.936C1991.79 743.534 2057.23 732.555 2122.17 715.446C2254.66 680.464 2386.93 622.825 2511.32 574.05" stroke="#BC7773" stroke-miterlimit="10"/>
<path d="M-97.9042 685.061C-79.674 806.296 47.9095 870.082 201.893 845.825C211.993 844.216 222.15 842.29 232.362 840.047C379.162 806.826 526.833 709.048 663.093 611.36C667.719 607.993 672.528 604.583 677.154 601.215C817.337 500.173 961.074 393.885 1112.29 344.567C1315.5 278.793 1494.99 340.441 1580.4 457.479C1591.42 472.542 1601.25 488.339 1610.54 504.265C1656.56 583.228 1687.84 666.258 1777.14 708.599C1821.63 729.653 1877.96 737.282 1939.35 735.05C1998.8 732.972 2063.87 721.813 2128.37 705.01C2259.94 670.645 2391.12 615.682 2512.86 571.452" stroke="#B37B7A" stroke-miterlimit="10"/>
<path d="M-87.5759 683.491C-67.5311 802.432 60.5443 862.998 213.314 838.051C223.223 836.493 233.399 834.417 243.631 832.024C389.162 798.443 535.563 702.237 670.843 606.505C675.464 603.146 680.239 599.903 684.86 596.544C824.185 497.74 967.497 394.207 1116.67 347.929C1317.45 286.086 1491.76 350.723 1579.12 464.399C1590.38 479.081 1600.48 494.336 1610.21 509.677C1658.48 585.718 1693.67 663.452 1784.08 702.147C1829.22 721.358 1885.39 727.661 1946.7 724.713C2005.87 721.962 2070.58 710.625 2134.47 694.012C2265.32 660.219 2395.04 608.01 2514.12 568.465" stroke="#AB7F80" stroke-miterlimit="10"/>
<path d="M-77.4548 682.143C-55.5996 798.799 72.9363 856.315 224.676 830.639C234.605 828.93 244.589 826.906 254.812 824.522C399.077 790.582 544.055 695.828 678.486 602.319C683.073 599.127 687.844 595.892 692.459 592.542C831.14 495.768 973.635 395.225 1120.94 351.932C1319.11 294.206 1488.26 361.659 1577.73 472.101C1589.22 486.404 1599.77 501.077 1609.96 515.836C1660.5 588.807 1699.55 661.426 1791.1 696.332C1836.89 713.706 1893.06 718.804 1953.91 715.229C2012.8 711.807 2077 700.176 2140.59 683.984C2270.51 650.962 2398.99 601.297 2515.62 566.219" stroke="#A28486" stroke-miterlimit="10"/>
<path d="M-67.1404 680.629C-43.4792 795.008 85.7239 849.286 236.07 822.968C245.99 821.268 255.811 819.137 265.842 816.805C408.841 782.508 552.373 689.358 685.984 597.909C690.567 594.725 695.332 591.499 699.914 588.314C837.743 493.766 979.79 396.118 1124.91 355.728C1320.67 301.902 1484.65 372.313 1576.07 479.42C1587.82 493.187 1598.79 507.438 1609.42 521.617C1662.41 591.49 1705.17 658.899 1797.97 690.305C1844.22 705.892 1900.6 709.588 1961.18 705.347C2019.83 701.099 2083.63 689.449 2146.59 673.604C2275.61 641.193 2403 594.177 2516.8 563.792" stroke="#9A888D" stroke-miterlimit="10"/>
<path d="M-56.7873 679.028C-31.3503 791.288 98.3305 842.381 247.46 815.387C257.217 813.58 267.001 811.616 277.051 809.136C418.78 774.49 560.861 682.951 693.676 593.408C698.226 590.39 702.803 587.215 707.535 584.154C844.535 491.678 986.13 396.928 1129.21 359.551C1322.57 309.62 1481.21 383.013 1574.74 486.749C1586.73 500.138 1598.15 513.811 1609.25 527.254C1664.48 594.237 1711.1 656.412 1805.03 684.058C1851.92 697.824 1908.29 700.325 1968.62 695.265C2027 690.353 2090.27 678.413 2152.78 662.874C2280.9 631.078 2407.05 586.595 2518.38 560.803" stroke="#918C93" stroke-miterlimit="10"/>
<path d="M-46.6714 677.624C-19.4092 787.466 110.721 835.545 258.822 807.831C268.57 806.033 278.192 803.962 288.078 801.377C428.516 766.534 569.183 676.435 701.183 588.94C705.728 585.93 710.272 582.92 714.817 579.909C850.97 489.646 991.995 397.503 1133.21 363.235C1324.04 316.904 1477.48 393.537 1573.14 493.922C1585.54 506.894 1597.04 520.076 1608.77 532.902C1666.24 596.854 1716.52 654.022 1811.72 678.04C1859.07 690.033 1915.47 691.187 1975.52 685.465C2033.62 679.891 2096.53 667.776 2158.6 652.539C2285.82 621.352 2410.89 579.5 2519.4 558.363" stroke="#899199" stroke-miterlimit="10"/>
<path d="M-36.3324 675.901C-7.27654 783.488 123.298 828.565 270.214 800.021C279.8 798.116 289.594 796.012 299.289 793.48C438.463 758.287 577.689 669.783 708.902 584.178C713.441 581.176 717.953 578.331 722.492 575.329C857.826 487.119 998.408 397.852 1137.6 366.57C1326.02 324.257 1474.35 403.64 1571.9 500.883C1584.57 513.325 1596.48 526.09 1608.48 538.386C1668.2 599.318 1722.32 651.301 1818.62 671.747C1866.59 681.934 1922.99 681.903 1982.79 675.366C2040.61 669.133 2103.19 656.688 2164.63 641.796C2290.95 611.217 2414.76 572.032 2520.86 555.292" stroke="#8095A0" stroke-miterlimit="10"/>
<path d="M-26.2058 674.711C4.63383 780.084 135.689 822.016 281.416 792.78C290.994 790.882 300.627 788.671 310.314 786.147C448.246 750.582 586.087 663.472 716.485 580.025C720.993 577.187 725.528 574.192 730.035 571.353C864.759 485.109 1004.74 398.71 1141.76 370.422C1327.83 331.925 1470.87 414.254 1570.52 508.192C1583.43 520.264 1595.78 532.462 1608.22 544.19C1670.16 602.286 1728.12 649.116 1825.51 666.003C1874.12 674.389 1930.54 673.015 1990.07 665.817C2047.84 658.722 2109.67 646.335 2170.85 631.693C2296.3 601.7 2419.05 565.107 2522.36 552.972" stroke="#789AA6" stroke-miterlimit="10"/>
<path d="M-16.7045 674.691C15.9041 777.921 147.621 816.834 292.205 786.859C301.625 784.851 311.253 782.645 320.755 780.167C457.49 744.179 594.158 658.489 723.641 576.998C728.146 574.163 732.652 571.329 737.157 568.494C871.118 484.325 1010.57 400.701 1145.84 375.112C1329.45 340.401 1467.4 425.651 1569.17 516.338C1582.31 528.048 1595.11 539.685 1607.99 550.853C1672.17 605.992 1733.95 647.863 1832.47 661.036C1881.55 667.665 1938.17 665.055 1997.3 657.065C2054.81 649.293 2116.34 636.547 2176.92 622.216C2301.52 592.762 2423.09 558.748 2524.05 550.936" stroke="#6F9EAC" stroke-miterlimit="10"/>
<path d="M-7.0804 674.627C27.2937 775.726 159.492 811.668 302.965 780.793C312.381 778.789 321.852 776.472 331.349 773.999C466.894 737.583 602.215 653.341 730.999 573.596C735.502 570.765 739.978 568.09 744.481 565.258C877.714 482.995 1016.81 402.091 1150.15 379.389C1331.48 348.407 1464.33 436.731 1568.24 524.022C1581.61 535.371 1594.67 546.491 1608.2 556.903C1674.62 609.095 1740.22 646.018 1840.03 655.599C1889.76 660.431 1946.42 656.472 2005.27 647.961C2062.54 639.51 2123.55 626.602 2183.71 612.537C2307.49 583.616 2428.06 552.13 2526.45 548.828" stroke="#66A2B3" stroke-miterlimit="10"/>
<path d="M2.54985 674.545C38.687 773.519 171.392 806.339 313.703 774.876C322.961 772.761 332.428 770.448 341.768 767.865C476.124 731.02 610.101 648.221 738.162 570.373C742.636 567.701 747.11 565.029 751.429 562.243C883.91 482.035 1022.69 403.687 1154.09 383.866C1333.12 356.761 1460.75 447.881 1566.74 532.097C1580.37 542.93 1593.85 553.648 1607.64 563.544C1676.28 612.952 1745.73 644.626 1846.66 650.662C1897.03 653.701 1953.53 648.592 2012.33 639.206C2069.36 630.078 2130.03 616.965 2189.78 603.165C2312.73 574.775 2432.14 545.695 2527.98 546.894" stroke="#5EA7B9" stroke-miterlimit="10"/>
<path d="M12.0116 674.443C49.9102 771.294 183.093 801.154 324.475 768.753C333.73 766.642 343.038 764.218 352.374 761.639C485.54 724.369 618.173 643.013 745.537 566.906C750.009 564.237 754.299 561.61 758.744 559.098C890.68 480.748 1028.73 405.351 1158.4 388.209C1334.98 364.861 1457.54 458.883 1565.63 539.871C1579.5 550.345 1593.42 560.507 1607.65 569.847C1678.53 616.318 1751.78 643.066 1853.81 645.564C1904.65 646.855 1961.34 640.516 2019.75 630.34C2076.55 620.38 2136.89 607.065 2196.05 593.57C2318.17 565.713 2436.39 539.192 2529.89 544.687" stroke="#55ABC0" stroke-miterlimit="10"/>
<path d="M21.6157 674.374C61.4542 769.07 195.116 795.974 335.185 762.869C344.281 760.647 353.586 758.228 362.737 755.695C494.718 717.993 626.013 638.071 752.66 563.849C757.102 561.34 761.391 558.715 765.833 556.206C897.023 479.901 1034.76 407.048 1162.32 392.815C1336.61 373.327 1454.14 470.092 1564.16 547.903C1578.25 558.019 1592.62 567.625 1607.29 576.411C1680.37 620.11 1757.45 641.785 1860.62 640.595C1912.1 640.098 1968.84 632.415 2026.99 621.563C2083.54 610.927 2143.38 597.448 2202.12 584.216C2323.6 556.843 2440.65 532.874 2531.42 542.894" stroke="#4DB0C6" stroke-miterlimit="10"/>
<path d="M31.2257 674.191C72.821 766.776 206.985 790.574 345.921 756.726C355.014 754.508 364.134 752.135 373.308 749.449C504.285 711.278 634.087 632.674 759.989 560.494C764.429 557.987 768.689 555.522 773.129 553.016C903.598 478.6 1040.99 408.444 1166.62 397.074C1338.66 381.286 1450.95 480.982 1563.07 555.581C1577.61 565.142 1592.02 574.432 1607.32 582.623C1682.63 623.399 1763.53 640.011 1867.78 635.451C1919.72 633.212 1976.65 624.302 2034.58 612.62C2090.89 601.31 2150.41 587.47 2208.75 574.501C2329.37 547.811 2445.28 526.234 2533.72 540.533" stroke="#44B4CC" stroke-miterlimit="10"/>
<path d="M40.6376 673.978C83.987 764.463 218.63 785.314 356.645 750.522C365.735 748.308 374.698 745.823 383.896 742.986C513.665 704.536 642.164 627.198 767.381 556.736C771.819 554.233 776.05 551.926 780.489 549.422C910.218 477.038 1047.1 409.609 1171.02 400.897C1340.59 388.992 1447.86 491.422 1562.05 562.973C1576.83 572.177 1591.68 580.915 1607.27 588.439C1684.81 626.298 1769.49 638.013 1874.85 629.93C1927.43 625.909 1984.23 615.699 2041.91 603.342C2097.97 591.356 2156.99 577.351 2214.91 564.642C2334.71 538.473 2449.64 519.395 2535.35 538.201" stroke="#3CB8D3" stroke-miterlimit="10"/>
<path d="M50.2561 673.725C95.3583 762.106 230.5 779.861 367.356 744.485C376.288 742.16 385.247 739.68 394.26 736.889C522.845 698.01 650.007 622.102 774.508 553.52C778.736 551.216 783.173 548.716 787.401 546.412C916.413 475.911 1052.9 411.483 1174.98 405.158C1342.24 397.25 1444.52 502.244 1560.63 570.635C1575.63 579.484 1590.93 587.668 1606.95 594.641C1686.7 629.744 1775.19 636.416 1881.85 624.623C1935.08 618.825 1991.88 607.434 2049.35 594.25C2105.16 581.591 2163.87 567.228 2221.38 554.78C2340.36 529.137 2454.11 512.598 2537.5 535.667" stroke="#33BDD9" stroke-miterlimit="10"/>
<path d="M59.6126 673.612C106.465 759.907 242.086 774.723 377.847 738.44C386.776 736.118 395.578 733.526 404.588 730.738C531.999 691.419 658.02 616.877 781.637 550.196C785.864 547.895 790.272 545.552 794.499 543.25C922.987 474.57 1058.79 412.892 1178.96 409.409C1343.8 405.211 1441.04 513.089 1559.24 578.29C1574.51 586.628 1590.22 594.418 1606.68 600.841C1688.65 633.039 1780.96 634.674 1888.7 619.522C1942.38 611.987 1999.42 599.215 2056.61 585.511C2112.2 572.02 2170.56 557.603 2227.48 545.453C2345.65 520.323 2458.45 506.116 2539.1 533.833" stroke="#2BC1DF" stroke-miterlimit="10"/>
<path d="M69.1686 673.307C117.769 757.515 254.074 769.201 388.712 732.169C397.484 729.736 406.283 727.148 415.109 724.405C541.344 684.648 666.042 611.515 788.981 546.539C793.207 544.239 797.586 542.055 801.812 539.755C929.567 473.093 1065.07 413.928 1183.33 413.284C1345.93 412.751 1438.14 523.503 1558.23 585.715C1573.72 593.699 1589.69 600.979 1606.78 606.813C1690.97 636.11 1787.05 632.872 1895.92 614.057C1950.28 604.592 2007.3 590.794 2064.09 576.302C2119.43 562.137 2177.31 547.398 2233.8 535.66C2351.16 511.045 2462.79 499.364 2541.13 531.329" stroke="#22C5E6" stroke-miterlimit="10"/>
<path d="M78.6707 673.311C129.017 755.439 265.799 764.194 399.314 726.413C408.084 723.983 416.726 721.284 425.549 718.544C550.61 678.349 673.988 606.619 796.225 543.499C800.422 541.357 804.619 539.216 809.024 536.878C936.076 472.073 1071.05 415.767 1187.61 417.76C1347.77 421.082 1434.97 534.549 1557.15 593.581C1572.88 601.211 1589.31 607.787 1606.63 613.269C1693.2 639.785 1792.9 631.567 1902.87 609.249C1957.87 598.012 2014.75 582.919 2071.48 567.712C2126.58 552.873 2184.13 537.927 2240.24 526.289C2356.78 502.187 2467.44 492.985 2543.08 529.429" stroke="#1ACAEC" stroke-miterlimit="10"/>
<path d="M88.0586 672.906C140.15 752.953 277.405 758.784 409.824 720.1C418.436 717.56 427.076 714.865 435.923 711.973C559.808 671.341 681.891 600.862 803.426 539.597C807.622 537.458 811.817 535.318 816.167 533.293C942.488 470.501 1077.17 416.702 1191.81 421.525C1349.74 428.501 1431.73 544.871 1556.18 600.686C1572.15 607.963 1589.02 613.991 1606.8 618.77C1695.59 642.395 1799.09 629.167 1910.16 603.351C1965.62 590.386 2022.69 574.075 2079.2 558.041C2134.05 542.529 2191.1 527.417 2246.8 516.036C2362.53 492.447 2472.03 485.763 2545.35 526.442" stroke="#11CEF2" stroke-miterlimit="10"/>
<path d="M97.5624 672.631C151.397 750.609 289.156 753.359 420.613 714.036C429.223 711.499 437.886 708.651 446.369 705.845C569.087 664.768 689.856 595.68 810.878 536.218C815.045 534.235 819.24 532.098 823.407 530.116C949.213 469.128 1083.4 418.017 1195.96 425.704C1351.66 436.325 1428.63 555.56 1554.99 608.248C1571.21 615.018 1588.5 620.653 1606.72 624.886C1697.73 645.625 1805 627.544 1917.17 598.23C1973.27 583.495 2030.39 565.849 2086.47 549.181C2141.11 532.84 2197.83 517.518 2253.13 506.389C2368.05 483.308 2476.58 479.093 2547.21 524.239" stroke="#09D3F9" stroke-miterlimit="10"/>
<path d="M107.057 672.272C162.634 748.185 301.051 747.973 431.239 707.779C561.427 667.586 689.513 594.22 817.994 532.676C946.683 470.935 1085.71 418.775 1200.15 429.623C1373.3 445.703 1442.64 599.058 1606.68 630.741C1746.33 657.643 1926.21 592.412 2093.96 540.035C2261.72 487.658 2448.2 448.628 2549.29 521.735" stroke="#00D7FF" stroke-miterlimit="10"/>
</g>
</mask>
<g mask="url(#mask0_1_789)">
<rect width="1418" height="1050.55" transform="matrix(0.93103 0.364943 0.364943 -0.93103 321.723 440.576)" fill="#BFB7B6"/>
</g>
</g>
</svg>
