<svg width="34" height="30" viewBox="0 0 34 30" fill="none" xmlns="http://www.w3.org/2000/svg">
<path fill-rule="evenodd" clip-rule="evenodd" d="M16.25 4.25225C16.1146 4.19727 15.9842 4.12677 15.8614 4.04074C12.3219 1.56053 7.35455 0.436577 3.65726 0.0187862C1.82741 -0.187984 0.333374 1.34004 0.333374 3.2253V21.9999C0.333374 23.8852 1.82741 25.4138 3.65726 25.6205C7.35455 26.0383 12.3219 27.1623 15.8614 29.6425C15.9842 29.7285 16.1146 29.799 16.25 29.854V4.25225ZM17.75 29.854C17.8854 29.799 18.0159 29.7285 18.1387 29.6425C21.6782 27.1623 26.6455 26.0383 30.3428 25.6205C32.1727 25.4138 33.6667 23.8852 33.6667 21.9999V3.2253C33.6667 1.34004 32.1727 -0.187984 30.3428 0.0187862C26.6455 0.436577 21.6782 1.56053 18.1387 4.04074C18.0159 4.12677 17.8854 4.19727 17.75 4.25225V29.854ZM4.59221 8.64295C4.6556 8.23361 5.03882 7.95317 5.44816 8.01657C7.59478 8.34901 10.0033 8.90351 12.2705 9.78027C12.6569 9.92967 12.849 10.364 12.6996 10.7503C12.5502 11.1366 12.1159 11.3287 11.7295 11.1793C9.58941 10.3517 7.29122 9.81988 5.21859 9.4989C4.80926 9.4355 4.52882 9.05228 4.59221 8.64295ZM5.44816 14.6832C5.03882 14.6198 4.6556 14.9003 4.59221 15.3096C4.52882 15.7189 4.80926 16.1022 5.21859 16.1656C6.26416 16.3275 7.36904 16.5434 8.48323 16.8245C8.88486 16.9258 9.29259 16.6824 9.39392 16.2807C9.49525 15.8791 9.25181 15.4714 8.85018 15.37C7.68537 15.0762 6.53422 14.8514 5.44816 14.6832Z" fill="#435058"/>
</svg>
