<?xml version="1.0" standalone="no"?>
<!DOCTYPE svg PUBLIC "-//W3C//DTD SVG 20010904//EN"
 "http://www.w3.org/TR/2001/REC-SVG-20010904/DTD/svg10.dtd">
<svg version="1.0" xmlns="http://www.w3.org/2000/svg"
 width="981.000000pt" height="766.000000pt" viewBox="0 0 981.000000 766.000000"
 preserveAspectRatio="xMidYMid meet">

<g transform="translate(0.000000,766.000000) scale(0.100000,-0.100000)"
fill="#000000" stroke="none">
<path d="M3535 7274 c-2011 -280 -2695 -379 -2740 -395 -176 -64 -329 -223
-406 -423 -60 -156 -73 -245 -73 -496 0 -190 3 -245 23 -355 48 -269 135 -472
262 -610 23 -25 40 -47 38 -49 -2 -2 -98 -32 -214 -66 -116 -35 -218 -70 -228
-78 -9 -8 -22 -32 -28 -53 -23 -76 43 -145 198 -208 117 -48 124 -52 179 -106
130 -128 194 -383 181 -715 -8 -194 -13 -212 -58 -224 -19 -5 -115 -35 -214
-68 -276 -91 -445 -181 -445 -239 0 -28 40 -49 147 -75 54 -14 104 -27 111
-29 8 -3 -9 -32 -48 -81 -72 -90 -111 -164 -149 -282 -47 -143 -56 -218 -55
-442 1 -225 20 -374 69 -545 76 -262 219 -460 389 -540 74 -35 3610 -1185
3643 -1185 10 0 1114 266 2453 590 1339 325 2539 615 2665 646 127 30 240 62
253 70 97 64 -124 192 -550 319 l-127 38 -8 76 c-11 112 -8 365 6 456 30 187
103 344 196 420 23 20 82 51 131 70 190 75 260 160 205 251 -16 26 -33 35
-136 65 l-117 36 52 38 c150 110 275 346 329 618 41 205 54 492 30 650 -27
181 -89 347 -169 453 l-39 52 217 52 c119 29 234 59 254 67 62 25 60 68 -5
117 -78 58 -298 148 -534 217 l-112 33 -8 55 c-15 105 -9 418 10 514 49 243
148 392 299 447 175 63 259 136 244 214 -13 63 -28 71 -256 140 -2544 768
-3108 936 -3144 935 -23 -1 -1247 -169 -2721 -375z m-839 -1334 c961 -313
1751 -573 1755 -577 6 -7 -28 -1163 -35 -1170 -1 -2 -403 109 -892 246 -489
137 -1251 350 -1694 474 -443 124 -827 231 -853 237 -187 41 -305 229 -348
554 -16 123 -7 441 15 521 23 85 69 174 110 214 36 34 120 70 168 71 15 0 813
-256 1774 -570z m6319 293 c-34 -79 -77 -225 -91 -308 -21 -120 -23 -422 -5
-564 6 -51 10 -96 7 -98 -2 -3 -438 -113 -968 -244 -530 -132 -1498 -373
-2151 -535 -654 -163 -1190 -294 -1193 -291 -6 5 23 978 32 1093 l5 71 377 77
c207 42 553 113 767 157 215 44 554 114 755 155 201 41 439 90 530 109 91 19
343 70 560 115 497 102 660 135 1040 215 347 72 345 72 335 48z m-38 -1578
c91 -27 157 -115 200 -265 26 -95 26 -496 0 -620 -25 -113 -60 -213 -100 -278
-41 -70 -128 -149 -175 -161 -83 -22 -1903 -531 -2672 -746 -454 -128 -826
-231 -827 -231 -1 1 -8 226 -17 501 -9 275 -18 539 -21 587 l-5 87 388 126
c213 69 477 156 587 191 110 36 308 101 440 144 132 43 337 110 455 148 864
282 1204 393 1400 458 124 40 241 74 261 74 19 0 58 -7 86 -15z m-6307 -620
c1031 -212 2014 -414 2183 -449 169 -35 311 -66 314 -70 6 -6 47 -1156 41
-1161 -2 -2 -743 181 -1648 406 -905 225 -1876 466 -2158 536 l-514 128 6 35
c3 19 11 110 18 202 19 274 -15 531 -91 695 -17 35 -29 63 -28 63 2 0 846
-173 1877 -385z m-261 -1771 c955 -311 1739 -569 1743 -573 7 -6 -28 -1160
-35 -1168 -3 -2 -777 212 -1721 476 -943 265 -1722 481 -1731 481 -33 0 -109
45 -155 91 -132 135 -197 393 -187 739 6 187 20 265 64 355 39 78 68 111 125
139 100 50 -9 81 1897 -540z m6302 278 c-84 -165 -121 -434 -99 -724 6 -90 12
-178 12 -197 l1 -35 -890 -221 c-489 -121 -1458 -362 -2152 -535 -694 -173
-1265 -312 -1267 -309 -5 5 31 1160 36 1164 2 1 209 43 462 95 l459 93 68 -16
68 -16 243 79 c263 87 103 51 1918 426 173 36 491 101 705 145 215 43 395 81
400 83 6 3 20 5 33 5 l22 1 -19 -38z"/>
</g>
</svg>
